<svg xmlns="http://www.w3.org/2000/svg" version="1.1" xmlns:xlink="http://www.w3.org/1999/xlink" xmlns:svgjs="http://svgjs.dev/svgjs" width="1000" height="750" viewBox="0 0 1000 750"><rect width="1000" height="750" fill="#111111"></rect><g transform="matrix(0.834,0,0,0.834,82.49454545454546,115.4193570850203)"><svg viewBox="0 0 396 247" data-background-color="#111111" preserveAspectRatio="xMidYMid meet" height="623" width="1000" xmlns="http://www.w3.org/2000/svg" xmlns:xlink="http://www.w3.org/1999/xlink"><g id="tight-bounds" transform="matrix(1,0,0,1,0.2400000000000091,-0.09999999999999432)"><svg viewBox="0 0 395.52 247.2" height="247.2" width="395.52"><rect width="395.5199890136719" height="247.1999969482422" fill="url(#1faf3d57-9889-4b29-abf1-d9229eed466e)" mask="url(#0f757df4-b304-4bda-b348-60cd06414412)" data-fill-palette-color="tertiary"></rect><g><svg></svg></g><g><svg viewBox="0 0 395.52 247.2" height="247.2" width="395.52"><g transform="matrix(1,0,0,1,82.53745990783408,47.215199999999996)"><svg viewBox="0 0 230.44508018433183 152.7696" height="152.7696" width="230.44508018433183"><g><svg viewBox="0 0 230.44508018433183 152.7696" height="152.7696" width="230.44508018433183"><g><svg viewBox="0 0 230.44508018433183 152.7696" height="152.7696" width="230.44508018433183"><g><svg viewBox="0 0 230.44508018433183 152.7696" height="152.7696" width="230.44508018433183"><g id="textblocktransform"><svg viewBox="0 0 230.44508018433183 152.7696" height="152.7696" width="230.44508018433183" id="textblock"><g><svg viewBox="0 0 230.44508018433183 152.7696" height="152.7696" width="230.44508018433183"><g transform="matrix(1,0,0,1,0,0)"><svg width="230.44508018433183" viewBox="4.650000095367432 -32.25 49.099998474121094 32.54999923706055" height="152.7696" data-palette-color="url(#ca3155c1-66bf-46ad-97f9-bce6fba8e628)"></svg></g></svg></g></svg></g></svg></g></svg></g></svg></g></svg></g><g><path d="M238.823 0c68.262 0 123.6 55.338 123.6 123.6 0 68.262-55.338 123.6-123.6 123.6-30.402 0-58.24-10.976-79.769-29.183l11.147 0c19.26 14.022 42.974 22.294 68.622 22.295 64.458 0 116.712-52.254 116.711-116.712 0-64.458-52.254-116.712-116.711-116.712-25.647 0-49.361 8.272-68.622 22.295l-11.147 0c21.528-18.206 49.366-29.183 79.769-29.183z" fill="url(#1faf3d57-9889-4b29-abf1-d9229eed466e)" stroke="transparent" data-fill-palette-color="tertiary"></path></g></svg></g><defs></defs><mask id="7ee8bc1b-e86f-4aa9-b6c0-b10cecb6f792"><g id="SvgjsG1015"><svg viewBox="0 0 395.52 247.2" height="247.2" width="395.52"><g><svg></svg></g><g><svg viewBox="0 0 395.52 247.2" height="247.2" width="395.52"><g transform="matrix(1,0,0,1,82.53745990783408,47.215199999999996)"><svg viewBox="0 0 230.44508018433183 152.7696" height="152.7696" width="230.44508018433183"><g><svg viewBox="0 0 230.44508018433183 152.7696" height="152.7696" width="230.44508018433183"><g><svg viewBox="0 0 230.44508018433183 152.7696" height="152.7696" width="230.44508018433183"><g><svg viewBox="0 0 230.44508018433183 152.7696" height="152.7696" width="230.44508018433183"><g id="SvgjsG1014"><svg viewBox="0 0 230.44508018433183 152.7696" height="152.7696" width="230.44508018433183" id="SvgjsSvg1013"><g><svg viewBox="0 0 230.44508018433183 152.7696" height="152.7696" width="230.44508018433183"><g transform="matrix(1,0,0,1,0,0)"><svg width="230.44508018433183" viewBox="4.650000095367432 -32.25 49.099998474121094 32.54999923706055" height="152.7696" data-palette-color="url(#ca3155c1-66bf-46ad-97f9-bce6fba8e628)"><path d="M16.25-32.25Q23.1-32.25 26.75-28.35 30.4-24.45 30.4-17.15L30.4-17.15Q30.4-8.7 26.45-4.2 22.5 0.3 15.1 0.3L15.1 0.3Q13.05 0.3 10.13 0.23 7.2 0.15 4.7 0L4.7 0 4.65 0 4.9-9.65 4.65-32.05 4.7-32.05 16.25-32.25ZM15.75-3.05Q20.85-3.05 23.58-6.38 26.3-9.7 26.3-16.3L26.3-16.3Q26.3-28.9 15.95-28.9L15.95-28.9Q12.8-28.9 8.7-28.7L8.7-28.7 8.5-10 8.65-3.35Q10.2-3.2 12.38-3.13 14.55-3.05 15.75-3.05L15.75-3.05ZM53.45-32.05L53.75-31.65 53.45-28.55 47.85-28.85 44.6-28.85 44.45-10 44.6 0 40.55 0 40.85-9.65 40.6-28.85 37.35-28.85 31.65-28.55 31.4-28.95 31.7-32.05 53.45-32.05Z" opacity="1" transform="matrix(1,0,0,1,0,0)" fill="white" class="wordmark-text-0" id="SvgjsPath1012"></path></svg></g></svg></g></svg></g></svg></g></svg></g></svg></g></svg></g><g></g></svg></g><defs><mask></mask></defs></svg></g></mask><linearGradient x1="0" x2="1" y1="0.578" y2="0.595" id="ca3155c1-66bf-46ad-97f9-bce6fba8e628"><stop stop-color="#6ee2f5" offset="0"></stop><stop stop-color="#6454f0" offset="1"></stop></linearGradient><rect width="395.5199890136719" height="247.1999969482422" fill="url(#ca3155c1-66bf-46ad-97f9-bce6fba8e628)" mask="url(#7ee8bc1b-e86f-4aa9-b6c0-b10cecb6f792)" data-fill-palette-color="primary"></rect><mask id="0f757df4-b304-4bda-b348-60cd06414412"><g id="SvgjsG1022"><svg viewBox="0 0 395.52 247.2" height="247.2" width="395.52"><g><svg></svg></g><g><svg viewBox="0 0 395.52 247.2" height="247.2" width="395.52"><g transform="matrix(1,0,0,1,82.53745990783408,47.215199999999996)"><svg viewBox="0 0 230.44508018433183 152.7696" height="152.7696" width="230.44508018433183"><g><svg viewBox="0 0 230.44508018433183 152.7696" height="152.7696" width="230.44508018433183"><g><svg viewBox="0 0 230.44508018433183 152.7696" height="152.7696" width="230.44508018433183"><g><svg viewBox="0 0 230.44508018433183 152.7696" height="152.7696" width="230.44508018433183"><g id="SvgjsG1021"><svg viewBox="0 0 230.44508018433183 152.7696" height="152.7696" width="230.44508018433183" id="SvgjsSvg1020"><g><svg viewBox="0 0 230.44508018433183 152.7696" height="152.7696" width="230.44508018433183"><g transform="matrix(1,0,0,1,0,0)"><svg width="230.44508018433183" viewBox="4.650000095367432 -32.25 49.099998474121094 32.54999923706055" height="152.7696" data-palette-color="url(#ca3155c1-66bf-46ad-97f9-bce6fba8e628)"></svg></g></svg></g></svg></g></svg></g></svg></g></svg></g></svg></g><g><path d="M238.823 0c68.262 0 123.6 55.338 123.6 123.6 0 68.262-55.338 123.6-123.6 123.6-30.402 0-58.24-10.976-79.769-29.183l11.147 0c19.26 14.022 42.974 22.294 68.622 22.295 64.458 0 116.712-52.254 116.711-116.712 0-64.458-52.254-116.712-116.711-116.712-25.647 0-49.361 8.272-68.622 22.295l-11.147 0c21.528-18.206 49.366-29.183 79.769-29.183z" fill="white" stroke="transparent"></path></g></svg></g><defs><mask></mask></defs><mask><g id="SvgjsG1019"><svg viewBox="0 0 395.52 247.2" height="247.2" width="395.52"><g><svg></svg></g><g><svg viewBox="0 0 395.52 247.2" height="247.2" width="395.52"><g transform="matrix(1,0,0,1,82.53745990783408,47.215199999999996)"><svg viewBox="0 0 230.44508018433183 152.7696" height="152.7696" width="230.44508018433183"><g><svg viewBox="0 0 230.44508018433183 152.7696" height="152.7696" width="230.44508018433183"><g><svg viewBox="0 0 230.44508018433183 152.7696" height="152.7696" width="230.44508018433183"><g><svg viewBox="0 0 230.44508018433183 152.7696" height="152.7696" width="230.44508018433183"><g id="SvgjsG1018"><svg viewBox="0 0 230.44508018433183 152.7696" height="152.7696" width="230.44508018433183" id="SvgjsSvg1017"><g><svg viewBox="0 0 230.44508018433183 152.7696" height="152.7696" width="230.44508018433183"><g transform="matrix(1,0,0,1,0,0)"><svg width="230.44508018433183" viewBox="4.650000095367432 -32.25 49.099998474121094 32.54999923706055" height="152.7696" data-palette-color="url(#ca3155c1-66bf-46ad-97f9-bce6fba8e628)"></svg></g></svg></g></svg></g></svg></g></svg></g></svg></g></svg></g><g></g></svg></g><defs><mask></mask></defs></svg></g></mask></svg></g></mask><linearGradient x1="0" x2="1" y1="0.578" y2="0.595" id="1faf3d57-9889-4b29-abf1-d9229eed466e"><stop stop-color="#6ee2f5" offset="0"></stop><stop stop-color="#6454f0" offset="1"></stop></linearGradient></svg><rect width="395.52" height="247.2" fill="none" stroke="none" visibility="hidden"></rect></g></svg></g></svg>